HIERARCHY
ROOT Hips
{
 OFFSET 0.000000 0.000000 0.000000
 CHANNELS 6 Xposition Yposition Zposition Yrotation Xrotation Zrotation
 JOINT Chest
 {
  OFFSET 0.000000 9.585900 0.002600
  CHANNELS 3 Yrotation Xrotation Zrotation
  JOINT Chest2
  {
   OFFSET 0.000000 9.601200 -0.005300
   CHANNELS 3 Yrotation Xrotation Zrotation
   JOINT Chest3
   {
    OFFSET 0.000000 9.561800 0.000000
    CHANNELS 3 Yrotation Xrotation Zrotation
    JOINT Chest4
    {
     OFFSET 0.000000 9.552100 0.000000
     CHANNELS 3 Yrotation Xrotation Zrotation
     JOINT Neck
     {
      OFFSET 0.000000 14.453000 0.000000
      CHANNELS 3 Yrotation Xrotation Zrotation
      JOINT Head
      {
       OFFSET 0.000000 8.936500 -0.011300
       CHANNELS 3 Yrotation Xrotation Zrotation
       End Site
       {
        OFFSET 0.000000 17.073600 -0.006000
       }
      }
     }
     JOINT RightCollar
     {
      OFFSET -2.921100 9.558500 0.000000
      CHANNELS 3 Yrotation Xrotation Zrotation
      JOINT RightShoulder
      {
       OFFSET -13.519700 0.000000 0.000000
       CHANNELS 3 Yrotation Xrotation Zrotation
       JOINT RightElbow
       {
        OFFSET 0.000000 -29.696600 0.000000
        CHANNELS 3 Yrotation Xrotation Zrotation
        JOINT RightWrist
        {
         OFFSET 0.000000 -24.004700 0.000000
         CHANNELS 3 Yrotation Xrotation Zrotation
         End Site
         {
          OFFSET 0.000000 -17.728500 0.000000
         }
        }
       }
      }
     }
     JOINT LeftCollar
     {
      OFFSET 2.921100 9.558500 0.000000
      CHANNELS 3 Yrotation Xrotation Zrotation
      JOINT LeftShoulder
      {
       OFFSET 13.519700 0.000000 0.000000
       CHANNELS 3 Yrotation Xrotation Zrotation
       JOINT LeftElbow
       {
        OFFSET 0.000000 -29.696600 0.000000
        CHANNELS 3 Yrotation Xrotation Zrotation
        JOINT LeftWrist
        {
         OFFSET 0.000000 -24.004700 0.000000
         CHANNELS 3 Yrotation Xrotation Zrotation
         End Site
         {
          OFFSET 0.000000 -17.728500 0.000000
         }
        }
       }
      }
     }
    }
   }
  }
 }
 JOINT RightHip
 {
  OFFSET -7.771700 -0.012900 -0.001300
  CHANNELS 3 Yrotation Xrotation Zrotation
  JOINT RightKnee
  {
   OFFSET 0.000000 -40.869800 0.001200
   CHANNELS 3 Yrotation Xrotation Zrotation
   JOINT RightAnkle
   {
    OFFSET 0.000000 -39.717900 0.002100
    CHANNELS 3 Yrotation Xrotation Zrotation
    JOINT RightToe
    {
     OFFSET 0.000000 -4.965400 11.033500
     CHANNELS 3 Yrotation Xrotation Zrotation
     End Site
     {
      OFFSET 0.000000 -1.423100 5.872300
     }
    }
   }
  }
 }
 JOINT LeftHip
 {
  OFFSET 7.771700 -0.012900 -0.001300
  CHANNELS 3 Yrotation Xrotation Zrotation
  JOINT LeftKnee
  {
   OFFSET 0.000000 -40.869800 0.001200
   CHANNELS 3 Yrotation Xrotation Zrotation
   JOINT LeftAnkle
   {
    OFFSET 0.000000 -39.717900 0.002100
    CHANNELS 3 Yrotation Xrotation Zrotation
    JOINT LeftToe
    {
     OFFSET 0.000000 -4.965400 11.033500
     CHANNELS 3 Yrotation Xrotation Zrotation
     End Site
     {
      OFFSET 0.000000 -1.423100 5.872300
     }
    }
   }
  }
 }
}
MOTION
Frames: 16
Frame Time: 0.008333
-14.400730 58.170415 66.730642 177.019303 -30.110334 -3.076481 2.662704 20.614193 3.952520 0.328623 2.747321 0.331055 0.543215 4.487690 0.546212 2.481781 17.784105 2.494155 -0.323555 17.012873 -0.436590 -0.449990 -4.206917 -0.694627 2.621758 -3.700592 -0.771697 7.561422 -14.737374 -15.412589 -73.634741 -82.755262 107.975698 11.544108 -16.335375 -46.605554 -6.810865 -4.647150 -3.468193 1.761262 -12.467651 -2.495727 -1.908825 -79.205598 -30.868608 -1.818494 -13.276253 33.371430 8.199752 -40.805488 -3.674864 -6.059537 67.214795 -6.807780 3.889274 6.944811 8.766520 -0.354421 0.754938 -0.163501 -7.424544 -46.934348 4.612068 27.082235 62.057053 24.585498 -12.243660 32.964407 2.836168 0.373486 -17.366925 -5.142883
-14.400892 58.162696 66.736465 177.007368 -30.130001 -3.065900 2.672236 20.631724 3.948987 0.330331 2.746189 0.332970 0.541194 4.488786 0.544369 2.481629 17.785033 2.493846 -0.286519 16.983966 -0.458543 -0.432747 -4.211096 -0.710462 2.623269 -3.702468 -0.766105 7.564244 -14.735528 -15.418269 -73.807529 -82.771684 108.166147 11.590186 -16.391704 -46.570308 -6.806846 -4.649635 -3.460001 1.766049 -12.456748 -2.493486 -1.948775 -79.235860 -30.817013 -1.799622 -13.270085 33.361929 8.223685 -40.789329 -3.690087 -6.054423 67.219476 -6.791109 3.892183 6.956618 8.765225 -0.355561 0.746796 -0.163773 -7.409699 -46.938797 4.605877 27.061947 62.068344 24.564260 -12.247349 33.028326 2.895973 0.373869 -17.386117 -5.198911
-14.401874 58.155428 66.743158 177.008570 -30.138145 -3.067235 2.675607 20.636659 3.954520 0.329084 2.746776 0.333392 0.541167 4.487871 0.544604 2.478843 17.784800 2.495387 -0.279144 16.979921 -0.468051 -0.346360 -4.271910 -0.784774 2.623464 -3.699740 -0.767693 7.576588 -14.738001 -15.417149 -73.817512 -82.782746 108.171193 11.618165 -16.417471 -46.545943 -6.799397 -4.647774 -3.461605 1.766337 -12.451184 -2.486875 -1.900686 -79.243398 -30.870048 -1.812678 -13.276322 33.374434 8.233138 -40.783368 -3.701182 -6.047311 67.222804 -6.772394 3.893945 6.972146 8.764941 -0.355938 0.735347 -0.164531 -7.427968 -46.950893 4.622991 27.041182 62.080973 24.531033 -12.242569 33.074098 2.925288 0.360273 -17.384430 -5.218901
-14.401377 58.148082 66.751798 177.017652 -30.130590 -3.088757 2.673466 20.626957 3.973736 0.332169 2.746817 0.335620 0.538250 4.487628 0.543834 2.484088 17.780276 2.508040 -0.280068 16.978553 -0.486548 -0.291808 -4.318381 -0.831083 2.617845 -3.693819 -0.777689 7.585046 -14.735756 -15.413309 -74.038658 -82.815030 108.406829 11.624901 -16.423500 -46.541585 -6.800756 -4.645117 -3.470622 1.767515 -12.447896 -2.487556 -1.899465 -79.265069 -30.867041 -1.797357 -13.261915 33.365957 8.235938 -40.794533 -3.704596 -6.045556 67.224014 -6.746983 3.902539 6.996290 8.766209 -0.361426 0.721435 -0.167091 -7.505171 -46.996997 4.697019 27.007878 62.115474 24.459676 -12.224246 33.208859 3.005743 0.376956 -17.457490 -5.288228
-14.404584 58.142171 66.758738 177.027278 -30.131569 -3.091423 2.671083 20.625691 3.979693 0.327020 2.748545 0.331385 0.542591 4.481814 0.553585 2.474294 17.783723 2.503628 -0.260574 16.963342 -0.498526 -0.263911 -4.346862 -0.859287 2.617239 -3.692893 -0.774838 7.593743 -14.728717 -15.415127 -74.525182 -82.847626 108.934373 11.619281 -16.399130 -46.563828 -6.789368 -4.640442 -3.470483 1.761956 -12.449052 -2.491941 -1.897596 -79.300448 -30.866791 -1.782930 -13.239286 33.365615 8.246497 -40.792795 -3.727341 -6.047775 67.225062 -6.731532 3.909332 7.014534 8.767591 -0.363554 0.712565 -0.168832 -7.536806 -47.018618 4.720377 26.968440 62.122960 24.396499 -12.231198 33.314200 3.065496 0.401904 -17.496551 -5.348091
-14.408188 58.135374 66.768356 177.042402 -30.113696 -3.095927 2.657063 20.605107 3.980038 0.326445 2.748454 0.331613 0.540710 4.483805 0.551406 2.472521 17.783966 2.504176 -0.230028 16.927578 -0.514023 -0.247168 -4.358904 -0.876749 2.616117 -3.690488 -0.768157 7.599921 -14.720476 -15.415596 -74.774958 -82.863413 109.207569 11.630576 -16.408571 -46.570722 -6.786519 -4.638823 -3.471766 1.764486 -12.447118 -2.485462 -1.853591 -79.313539 -30.911008 -1.785745 -13.236322 33.359534 8.251692 -40.809983 -3.751660 -6.012234 67.225134 -6.682167 3.893505 7.035603 8.761940 -0.356313 0.704797 -0.165886 -7.575191 -47.056864 4.746832 26.902906 62.125556 24.307943 -12.225576 33.427135 3.112449 0.414594 -17.535339 -5.390749
-14.408475 58.131792 66.773965 177.034723 -30.127252 -3.105843 2.668722 20.614031 3.997513 0.325906 2.748703 0.331781 0.540731 4.485716 0.550229 2.470532 17.784443 2.504491 -0.213304 16.909870 -0.523748 -0.216844 -4.392695 -0.902741 2.615827 -3.689698 -0.767504 7.611137 -14.710747 -15.402745 -74.896669 -82.882949 109.332414 11.639765 -16.432785 -46.563704 -6.783683 -4.637246 -3.473219 1.763000 -12.448429 -2.476848 -1.805806 -79.323837 -30.953110 -1.811721 -13.256002 33.345333 8.256798 -40.799723 -3.741671 -6.010117 67.224273 -6.671914 3.899661 7.064451 8.765628 -0.358419 0.686712 -0.166558 -7.605826 -47.063157 4.792736 26.891748 62.138806 24.278155 -12.257697 33.495447 3.143542 0.429093 -17.550140 -5.430034
-14.409636 58.127160 66.782148 177.036792 -30.123331 -3.112701 2.669664 20.607609 4.003583 0.329157 2.745740 0.336089 0.536671 4.490304 0.547372 2.472646 17.784296 2.511205 -0.209888 16.900801 -0.534238 -0.202547 -4.410181 -0.915045 2.610298 -3.687783 -0.769166 7.616732 -14.710128 -15.406104 -74.985890 -82.883427 109.431603 11.644263 -16.437946 -46.563392 -6.778288 -4.639120 -3.479709 1.754082 -12.446916 -2.466293 -1.772031 -79.355302 -30.973323 -1.804649 -13.246654 33.327342 8.252144 -40.801840 -3.734907 -6.006384 67.217925 -6.672133 3.900535 7.078125 8.771594 -0.354282 0.693997 -0.164866 -7.640075 -47.085941 4.832550 26.859198 62.143974 24.223562 -12.283440 33.585658 3.178268 0.441338 -17.575067 -5.469218
-14.412634 58.122267 66.791246 177.036707 -30.113307 -3.103063 2.670558 20.590035 4.000604 0.324956 2.751527 0.331958 0.539028 4.489215 0.549742 2.470093 17.788151 2.511333 -0.204772 16.889060 -0.540636 -0.157940 -4.472619 -0.951195 2.609070 -3.686983 -0.766996 7.621788 -14.705743 -15.398442 -75.348340 -82.889569 109.826084 11.650630 -16.402101 -46.583776 -6.770159 -4.650656 -3.473491 1.759130 -12.448931 -2.454344 -1.659773 -79.378433 -31.090682 -1.787904 -13.222051 33.315722 8.244576 -40.813138 -3.738810 -5.985710 67.214865 -6.669921 3.900116 7.100597 8.775451 -0.353581 0.684094 -0.161900 -7.644642 -47.106969 4.836905 26.823169 62.136172 24.172133 -12.284143 33.645582 3.204584 0.427592 -17.570365 -5.485042
-14.414149 58.119099 66.798273 177.039878 -30.118974 -3.097964 2.666170 20.594863 3.994664 0.325343 2.750795 0.332828 0.539844 4.488832 0.551593 2.471828 17.795314 2.511559 -0.194288 16.863682 -0.548575 -0.130837 -4.511094 -0.974390 2.609383 -3.690389 -0.766484 7.632733 -14.705935 -15.380135 -75.468193 -82.906689 109.950319 11.661853 -16.442974 -46.551142 -6.777557 -4.657023 -3.471327 1.771999 -12.455703 -2.448694 -1.628669 -79.410799 -31.117733 -1.788768 -13.213486 33.301566 8.232307 -40.806082 -3.738116 -5.979777 67.212213 -6.675655 3.901069 7.114227 8.777462 -0.352361 0.678828 -0.161688 -7.652319 -47.111548 4.842564 26.814239 62.127175 24.148578 -12.300999 33.697320 3.224259 0.422519 -17.561650 -5.501637
-14.411188 58.114246 66.809521 177.071074 -30.096893 -3.129618 2.645898 20.569676 4.014968 0.325495 2.752405 0.332788 0.539840 4.491355 0.551589 2.474459 17.803590 2.508950 -0.183875 16.837511 -0.554924 -0.136230 -4.508249 -0.970540 2.605626 -3.698860 -0.764905 7.638668 -14.705046 -15.371323 -75.538465 -82.915245 110.022162 11.674790 -16.458130 -46.532489 -6.786012 -4.665747 -3.467210 1.780281 -12.462599 -2.443260 -1.573197 -79.439175 -31.159265 -1.820041 -13.239122 33.289308 8.175485 -40.822514 -3.710933 -6.024106 67.196600 -6.725386 3.930396 7.122273 8.778785 -0.361587 0.681100 -0.163791 -7.750481 -47.154189 4.942031 26.801220 62.126613 24.079085 -12.364102 33.830932 3.227896 0.456715 -17.613391 -5.515393
-14.409547 58.113394 66.814075 177.051634 -30.122514 -3.121118 2.667903 20.592138 4.021343 0.329554 2.755738 0.332976 0.540644 4.497425 0.551938 2.472210 17.807530 2.504780 -0.155353 16.800261 -0.569838 -0.132164 -4.540219 -0.974273 2.604468 -3.710507 -0.756313 7.644504 -14.703484 -15.371231 -75.608659 -82.923674 110.094661 11.680841 -16.459211 -46.527452 -6.793476 -4.677463 -3.460840 1.784539 -12.469552 -2.441548 -1.527675 -79.477752 -31.195000 -1.823076 -13.232162 33.281350 8.171191 -40.793245 -3.691232 -6.038477 67.186522 -6.751630 3.936571 7.126538 8.778527 -0.359501 0.682519 -0.163720 -7.742881 -47.136176 4.959088 26.793460 62.125912 24.056920 -12.386775 33.865388 3.254879 0.466723 -17.606480 -5.545856
-14.404760 58.112962 66.818774 177.033217 -30.148397 -3.128159 2.698247 20.612833 4.041575 0.327291 2.759806 0.332507 0.537778 4.497786 0.553524 2.474314 17.812243 2.503439 -0.144879 16.786029 -0.574383 -0.082841 -4.614411 -1.004205 2.612751 -3.720383 -0.746110 7.648260 -14.700660 -15.370351 -75.744351 -82.940032 110.243693 11.683800 -16.448140 -46.533294 -6.796889 -4.691234 -3.453178 1.789337 -12.471055 -2.445740 -1.496754 -79.515190 -31.208403 -1.821469 -13.225976 33.268351 8.153782 -40.764808 -3.650213 -6.052437 67.173970 -6.777756 3.949715 7.134063 8.777134 -0.364754 0.680550 -0.161610 -7.768675 -47.120164 5.025501 26.777064 62.136712 24.009991 -12.446545 33.915932 3.272421 0.525223 -17.631634 -5.590602
-14.403085 58.109805 66.827927 177.041100 -30.140110 -3.128681 2.693009 20.603475 4.037984 0.326316 2.761869 0.332493 0.539860 4.501425 0.551468 2.475068 17.813814 2.505238 -0.143327 16.777274 -0.573877 -0.066893 -4.638155 -1.013191 2.608929 -3.728461 -0.742879 7.662392 -14.702559 -15.358365 -75.812055 -82.963226 110.318717 11.715503 -16.479168 -46.492499 -6.798839 -4.702704 -3.446048 1.792661 -12.476567 -2.451066 -1.469129 -79.549063 -31.226145 -1.818876 -13.221927 33.265402 8.135346 -40.768051 -3.643523 -6.057710 67.164121 -6.794137 3.948051 7.136376 8.774176 -0.364925 0.686085 -0.159563 -7.801618 -47.138329 5.070285 26.738315 62.134594 23.929563 -12.469127 33.989478 3.304114 0.541928 -17.634945 -5.615971
-14.398575 58.108887 66.833692 177.028066 -30.157306 -3.133477 2.711556 20.616860 4.051454 0.327513 2.765884 0.332571 0.546255 4.509280 0.550868 2.477168 17.817990 2.505368 -0.133371 16.754305 -0.578027 -0.020200 -4.713082 -1.039027 2.595017 -3.744751 -0.737736 7.680440 -14.705255 -15.351451 -75.938417 -82.986839 110.448330 11.714495 -16.480250 -46.482814 -6.799748 -4.733886 -3.443859 1.789069 -12.470276 -2.450780 -1.441505 -79.586372 -31.233094 -1.805917 -13.207126 33.248667 8.124420 -40.748529 -3.617241 -6.055248 67.154048 -6.797829 3.953213 7.143368 8.775099 -0.372880 0.686268 -0.164065 -7.822662 -47.129792 5.122011 26.713480 62.146666 23.880934 -12.493582 34.012942 3.313645 0.512459 -17.572169 -5.616182
-14.394691 58.107882 66.839435 177.009925 -30.174220 -3.132034 2.732453 20.628569 4.060216 0.329792 2.767642 0.332321 0.546811 4.514902 0.550924 2.480167 17.824471 2.503501 -0.108013 16.727755 -0.586241 -0.007885 -4.747484 -1.039809 2.586700 -3.756561 -0.727397 7.692826 -14.706484 -15.353720 -76.050483 -82.998274 110.572130 11.717675 -16.478160 -46.485871 -6.804309 -4.748931 -3.437993 1.793972 -12.476048 -2.454380 -1.374734 -79.617875 -31.289157 -1.796248 -13.172823 33.235302 8.126566 -40.729662 -3.600978 -6.054895 67.144732 -6.798224 3.957303 7.150751 8.777326 -0.376476 0.684129 -0.168785 -7.836572 -47.120905 5.167939 26.681599 62.158439 23.825099 -12.508818 34.038345 3.324332 0.510535 -17.546318 -5.625658
